<?xml version="1.0" encoding="UTF-8" standalone="no"?>
<svg
   style="height: 512px; width: 512px;"
   viewBox="0 0 512 512"
   version="1.1"
   id="svg2"
   sodipodi:docname="cycle.svg"
   inkscape:version="1.3 (0e150ed6c4, 2023-07-21)"
   xmlns:inkscape="http://www.inkscape.org/namespaces/inkscape"
   xmlns:sodipodi="http://sodipodi.sourceforge.net/DTD/sodipodi-0.dtd"
   xmlns="http://www.w3.org/2000/svg"
   xmlns:svg="http://www.w3.org/2000/svg">
  <defs
     id="defs2" />
  <sodipodi:namedview
     id="namedview2"
     pagecolor="#ffffff"
     bordercolor="#000000"
     borderopacity="0.25"
     inkscape:showpageshadow="2"
     inkscape:pageopacity="0.0"
     inkscape:pagecheckerboard="0"
     inkscape:deskcolor="#d1d1d1"
     inkscape:zoom="1.7539062"
     inkscape:cx="255.71493"
     inkscape:cy="256.00001"
     inkscape:window-width="1920"
     inkscape:window-height="1135"
     inkscape:window-x="0"
     inkscape:window-y="0"
     inkscape:window-maximized="1"
     inkscape:current-layer="svg2" />
  <path
     d="M0 0h512v512H0z"
     fill="#000"
     fill-opacity="1"
     id="path1"
     style="fill:#ffffff;fill-opacity:1" />
  <g
     class=""
     transform="matrix(0.97341745,0,0,0.97341745,8.443147,8.530374)"
     id="g2">
    <path
       d="m 252.314,19.957 c -72.036,0.363 -142.99,33.534 -189.18,95.97 -69.83,94.39 -59.125,223.32 19.85,304.993 L 45.746,471.252 196.966,448.639 174.35,297.42 131.213,355.728 c -44.08,-54.382 -47.723,-133.646 -4.16,-192.53 30.676,-41.466 77.863,-63.504 125.758,-63.753 16.344,-0.085 32.766,2.382 48.645,7.467 l -6.963,-46.55 C 270.635,55.502 246.585,55.336 223.476,59.365 164.244,66.687 109.482,99.283 75.319,150.58 110.969,84.69 179.093,44.662 251.362,42.836 c 1.673,-0.042 3.347,-0.063 5.023,-0.065 14.8,-0.01 29.748,1.596 44.597,4.905 L 349.59,40.408 C 318.45,26.502 285.27,19.788 252.316,19.955 Z m 212.93,22.055 -151.217,22.61 22.614,151.22 41.126,-55.588 c 42.204,54.29 45.092,132.048 2.187,190.043 -40.22,54.367 -108.82,75.32 -170.19,57.566 l 6.522,43.598 c 28.726,5.533 58.236,4.414 86.203,-3.07 37.448,-5.957 73.34,-22.05 103.16,-47.728 -49.196,54.65 -122.615,77.514 -191.744,64.34 l -55.8,8.344 c 99.03,43.7 218.402,14.77 285.51,-75.938 69.13,-93.445 59.34,-220.743 -17.483,-302.53 l 39.114,-52.866 z"
       fill="#fff"
       fill-opacity="1"
       id="path2"
       style="fill:#000000;fill-opacity:1" />
  </g>
</svg>
