<?xml version="1.0" encoding="UTF-8" standalone="no"?>
<!-- Generator: Adobe Illustrator 23.0.1, SVG Export Plug-In . SVG Version: 6.00 Build 0)  -->

<svg
   version="1.1"
   id="Layer_1"
   x="0px"
   y="0px"
   viewBox="0 0 4500 5400"
   style="enable-background:new 0 0 4500 5400;"
   xml:space="preserve"
   sodipodi:docname="d12-green.svg"
   inkscape:version="1.3 (0e150ed6c4, 2023-07-21)"
   xmlns:inkscape="http://www.inkscape.org/namespaces/inkscape"
   xmlns:sodipodi="http://sodipodi.sourceforge.net/DTD/sodipodi-0.dtd"
   xmlns="http://www.w3.org/2000/svg"
   xmlns:svg="http://www.w3.org/2000/svg"><defs
   id="defs5" /><sodipodi:namedview
   id="namedview5"
   pagecolor="#ffffff"
   bordercolor="#000000"
   borderopacity="0.25"
   inkscape:showpageshadow="2"
   inkscape:pageopacity="0.0"
   inkscape:pagecheckerboard="0"
   inkscape:deskcolor="#d1d1d1"
   inkscape:zoom="0.1662963"
   inkscape:cx="2252.0044"
   inkscape:cy="2699.9999"
   inkscape:window-width="1920"
   inkscape:window-height="1135"
   inkscape:window-x="0"
   inkscape:window-y="0"
   inkscape:window-maximized="1"
   inkscape:current-layer="Layer_1" />&#10;<style
   type="text/css"
   id="style1">&#10;	.st0{fill:#666666;}&#10;</style>&#10;<g
   id="g5"
   style="fill:#36fb4e;fill-opacity:1"
   transform="matrix(0.95571735,0,0,0.95571735,99.635963,119.56435)">&#10;	<path
   class="st0"
   d="M 1320.1,3868.22 841.45,4509.41 8.98,3442.55 C 3.59,3435.37 0,3425.49 0,3416.51 V 2044.33 l 769.6,256.84 z"
   id="path1"
   style="fill:#36fb4e;fill-opacity:1" />&#10;	<path
   class="st0"
   d="m 2183.09,352.45 v 790.26 L 810.01,2172.74 43.1,1916.81 876.47,813.14 c 5.38,-7.19 12.57,-12.57 20.65,-15.27 z"
   id="path2"
   style="fill:#36fb4e;fill-opacity:1" />&#10;	<path
   class="st0"
   d="M 4456.9,1916.81 3689.98,2172.74 2317.8,1142.71 V 352.45 l 1285.08,445.42 c 8.08,2.7 15.26,8.08 20.65,15.27 z"
   id="path3"
   style="fill:#36fb4e;fill-opacity:1" />&#10;	<path
   class="st0"
   d="m 3548.98,4587.53 -1285.07,458 c -8.98,2.69 -18.85,2.69 -27.83,0 L 951,4587.53 1429.65,3946.34 h 1640.69 z"
   id="path4"
   style="fill:#36fb4e;fill-opacity:1" />&#10;	<polygon
   class="st0"
   points="902.51,2271.53 2250.44,1260.35 3597.48,2271.53 3056.87,3811.64 1443.12,3811.64 "
   id="polygon4"
   style="fill:#36fb4e;fill-opacity:1" />&#10;	<path
   class="st0"
   d="m 4500,2044.33 v 1372.18 c 0,8.98 -3.6,18.86 -8.98,26.04 L 3658.55,4509.4 3179.91,3867.32 3730.39,2301.16 Z"
   id="path5"
   style="fill:#36fb4e;fill-opacity:1" />&#10;</g>&#10;</svg>
