<?xml version="1.0" encoding="utf-8"?>
<!-- Generator: Adobe Illustrator 23.0.1, SVG Export Plug-In . SVG Version: 6.00 Build 0)  -->
<svg version="1.1" id="Layer_1" xmlns="http://www.w3.org/2000/svg" xmlns:xlink="http://www.w3.org/1999/xlink" x="0px" y="0px"
	 viewBox="0 0 4500 5400" style="enable-background:new 0 0 4500 5400;" xml:space="preserve">
<style type="text/css">
	.st0{fill:#666666;}
</style>
<g>
	<path class="st0" d="M1320.1,3868.22l-478.65,641.19L8.98,3442.55c-5.39-7.18-8.98-17.06-8.98-26.04V2044.33l769.6,256.84
		L1320.1,3868.22z"/>
	<path class="st0" d="M2183.09,352.45v790.26L810.01,2172.74L43.1,1916.81L876.47,813.14c5.38-7.19,12.57-12.57,20.65-15.27
		L2183.09,352.45z"/>
	<path class="st0" d="M4456.9,1916.81l-766.92,255.93L2317.8,1142.71V352.45l1285.08,445.42c8.08,2.7,15.26,8.08,20.65,15.27
		L4456.9,1916.81z"/>
	<path class="st0" d="M3548.98,4587.53l-1285.07,458c-8.98,2.69-18.85,2.69-27.83,0l-1285.08-458l478.65-641.19h1640.69
		L3548.98,4587.53z"/>
	<polygon class="st0" points="3597.48,2271.53 3056.87,3811.64 1443.12,3811.64 902.51,2271.53 2250.44,1260.35 	"/>
	<path class="st0" d="M4500,2044.33v1372.18c0,8.98-3.6,18.86-8.98,26.04l-832.47,1066.85l-478.64-642.08l550.48-1566.16
		L4500,2044.33z"/>
</g>
</svg>
